<svg width="29" height="24" viewBox="0 0 29 24" fill="none" xmlns="http://www.w3.org/2000/svg">
<path d="M2.9026 24C2.12674 24 1.46256 23.7063 0.910056 23.1188C0.357551 22.5312 0.0812988 21.825 0.0812988 21V3C0.0812988 2.175 0.357551 1.46875 0.910056 0.88125C1.46256 0.29375 2.12674 0 2.9026 0H25.473C26.2489 0 26.913 0.29375 27.4655 0.88125C28.018 1.46875 28.2943 2.175 28.2943 3V21C28.2943 21.825 28.018 22.5312 27.4655 23.1188C26.913 23.7063 26.2489 24 25.473 24H2.9026ZM14.1878 13.5L2.9026 6V21H25.473V6L14.1878 13.5ZM14.1878 10.5L25.473 3H2.9026L14.1878 10.5ZM2.9026 6V3V21V6Z" fill="#B8A05A"/>
</svg>
