<svg width="56" height="56" viewBox="0 0 56 56" fill="none" xmlns="http://www.w3.org/2000/svg">
<path d="M43.9 46C39.7333 46 35.6167 45.0917 31.55 43.275C27.4833 41.4583 23.7833 38.8833 20.45 35.55C17.1167 32.2167 14.5417 28.5167 12.725 24.45C10.9083 20.3833 10 16.2667 10 12.1C10 11.5 10.2 11 10.6 10.6C11 10.2 11.5 10 12.1 10H20.2C20.6667 10 21.0833 10.1583 21.45 10.475C21.8167 10.7917 22.0333 11.1667 22.1 11.6L23.4 18.6C23.4667 19.1333 23.45 19.5833 23.35 19.95C23.25 20.3167 23.0667 20.6333 22.8 20.9L17.95 25.8C18.6167 27.0333 19.4083 28.225 20.325 29.375C21.2417 30.525 22.25 31.6333 23.35 32.7C24.3833 33.7333 25.4667 34.6917 26.6 35.575C27.7333 36.4583 28.9333 37.2667 30.2 38L34.9 33.3C35.2 33 35.5917 32.775 36.075 32.625C36.5583 32.475 37.0333 32.4333 37.5 32.5L44.4 33.9C44.8667 34.0333 45.25 34.275 45.55 34.625C45.85 34.975 46 35.3667 46 35.8V43.9C46 44.5 45.8 45 45.4 45.4C45 45.8 44.5 46 43.9 46ZM16.05 22L19.35 18.7L18.5 14H14.05C14.2167 15.3667 14.45 16.7167 14.75 18.05C15.05 19.3833 15.4833 20.7 16.05 22ZM33.95 39.9C35.25 40.4667 36.575 40.9167 37.925 41.25C39.275 41.5833 40.6333 41.8 42 41.9V37.5L37.3 36.55L33.95 39.9Z" fill="#B8A05A"/>
</svg>
