<svg width="57" height="61" viewBox="0 0 57 61" fill="none" xmlns="http://www.w3.org/2000/svg">
<path d="M53.4462 0.5H4.02943C3.2195 0.5 2.44274 0.847678 1.87004 1.46655C1.29733 2.08542 0.975586 2.92479 0.975586 3.8V57.2C0.975586 58.0752 1.29733 58.9146 1.87004 59.5335C2.44274 60.1523 3.2195 60.5 4.02943 60.5H19.0007C25.421 60.5 30.6257 55.2953 30.6257 48.875V40.8591C30.6257 38.8658 29.0098 37.25 27.0166 37.25C25.0233 37.25 23.4075 35.6342 23.4075 33.6409V31.8591C23.4075 29.8658 25.0233 28.25 27.0166 28.25C29.0098 28.25 30.6257 26.6342 30.6257 24.6409V21.5C30.4761 19.9153 30.6493 18.3144 31.1329 16.8096C31.6166 15.3048 32.399 13.9326 33.4254 12.7892C34.4518 11.6458 35.6972 10.7589 37.0743 10.1907C38.4515 9.62251 39.927 9.38675 41.3974 9.5C42.2887 9.49335 43.1798 9.50989 44.07 9.54959C46.241 9.6464 47.866 11.4964 47.866 13.6696C47.866 16.0391 45.9451 17.96 43.5756 17.96H43.4518C39.9538 17.96 39.2875 19.76 39.2875 22.37V24.2453C39.2875 26.4073 41.0402 28.16 43.2022 28.16C45.5497 28.16 47.3693 30.2117 47.0889 32.5423L46.9402 33.7786C46.7081 35.7081 45.071 37.16 43.1276 37.16C41.0068 37.16 39.2875 38.8793 39.2875 41.0001V48.83C39.2875 55.2752 44.5123 60.5 50.9575 60.5H53.4462C53.8473 60.5 54.2444 60.4146 54.6149 60.2488C54.9854 60.083 55.322 59.8399 55.6056 59.5335C55.8892 59.227 56.1141 58.8632 56.2676 58.4629C56.4211 58.0625 56.5001 57.6334 56.5001 57.2V3.8C56.5001 3.36664 56.4211 2.93752 56.2676 2.53714C56.1141 2.13677 55.8892 1.77298 55.6056 1.46655C55.322 1.16011 54.9854 0.917038 54.6149 0.751198C54.2444 0.585357 53.8473 0.5 53.4462 0.5Z" fill="white"/>
</svg>
