<svg width="55" height="60" viewBox="0 0 55 60" fill="none" xmlns="http://www.w3.org/2000/svg">
<path d="M19.36 58.62C22 59.49 24.6675 60 27.5 60C34.7935 60 41.7882 56.8393 46.9454 51.2132C52.1027 45.5871 55 37.9565 55 30C55 26.0603 54.2887 22.1593 52.9067 18.5195C51.5247 14.8797 49.499 11.5726 46.9454 8.7868C44.3918 6.00104 41.3602 3.79126 38.0238 2.28361C34.6873 0.775973 31.1114 0 27.5 0C23.8886 0 20.3127 0.775973 16.9762 2.28361C13.6398 3.79126 10.6082 6.00104 8.05456 8.7868C2.89731 14.4129 0 22.0435 0 30C0 42.75 7.3425 53.7 17.71 58.02C17.4625 55.68 17.215 51.81 17.71 49.14L20.8725 34.32C20.8725 34.32 20.075 32.58 20.075 29.82C20.075 25.68 22.44 22.59 25.135 22.59C27.5 22.59 28.6 24.48 28.6 26.91C28.6 29.49 27.0325 33.18 26.235 36.72C25.7675 39.66 27.665 42.24 30.415 42.24C35.31 42.24 39.105 36.54 39.105 28.5C39.105 21.3 34.375 16.38 27.5825 16.38C19.8275 16.38 15.2625 22.68 15.2625 29.31C15.2625 31.89 16.0325 34.5 17.2975 36.21C17.545 36.39 17.545 36.63 17.4625 37.08L16.665 40.35C16.665 40.86 16.3625 41.04 15.895 40.68C12.375 39 10.34 33.54 10.34 29.13C10.34 19.65 16.5 11.04 28.38 11.04C37.84 11.04 45.21 18.45 45.21 28.29C45.21 38.61 39.3525 46.89 30.965 46.89C28.2975 46.89 25.685 45.33 24.75 43.5L22.9075 50.61C22.275 53.19 20.5425 56.64 19.36 58.71V58.62Z" fill="white"/>
</svg>
