<svg width="57" height="61" viewBox="0 0 57 61" fill="none" xmlns="http://www.w3.org/2000/svg">
<path d="M31.1162 0.5C34.2393 0.509 35.8245 0.526999 37.1931 0.568998L37.7316 0.589998C38.3535 0.613997 38.967 0.643996 39.7082 0.679995C42.662 0.829992 44.6774 1.33398 46.4458 2.07496C48.278 2.83694 49.8215 3.86892 51.365 5.53388C52.7772 7.03304 53.8695 8.84721 54.5658 10.8497C55.2515 12.7607 55.7179 14.9386 55.8567 18.1336C55.89 18.9316 55.9178 19.5945 55.94 20.2695L55.9566 20.8515C55.9983 22.3275 56.0149 24.0404 56.0205 27.4153L56.0233 29.6533V33.5832C56.03 35.7714 56.0087 37.9595 55.9594 40.147L55.9427 40.729C55.9205 41.404 55.8928 42.067 55.8595 42.865C55.7207 46.0599 55.2487 48.2348 54.5658 50.1488C53.8695 52.1513 52.7772 53.9655 51.365 55.4647C49.9777 56.9907 48.2989 58.1712 46.4458 58.9236C44.6774 59.6646 42.662 60.1686 39.7082 60.3186L37.7316 60.4085L37.1931 60.4265C35.8245 60.4685 34.2393 60.4895 31.1162 60.4955L29.0453 60.4985H25.4114C23.3856 60.5063 21.3597 60.4833 19.3345 60.4295L18.796 60.4115C18.137 60.3846 17.4781 60.3536 16.8194 60.3186C13.8656 60.1686 11.8502 59.6646 10.0791 58.9236C8.22695 58.1708 6.54912 56.9903 5.16262 55.4647C3.74944 53.9658 2.65612 52.1516 1.95902 50.1488C1.27333 48.2378 0.806948 46.0599 0.668144 42.865L0.584861 40.729L0.570981 40.147C0.519807 37.9595 0.496671 35.7714 0.501579 33.5832V27.4153C0.493895 25.2272 0.514255 23.039 0.562653 20.8515L0.582086 20.2695C0.604294 19.5945 0.632055 18.9316 0.665368 18.1336C0.804172 14.9386 1.27055 12.7637 1.95625 10.8497C2.65497 8.84639 3.75022 7.03215 5.1654 5.53388C6.55109 4.00856 8.22794 2.82816 10.0791 2.07496C11.8502 1.33398 13.8629 0.829992 16.8194 0.679995C17.5578 0.643996 18.1741 0.613997 18.796 0.589998L19.3345 0.571998C21.3588 0.518698 23.3837 0.495696 25.4086 0.503L31.1162 0.5ZM28.2624 15.4996C24.5811 15.4996 21.0506 17.08 18.4475 19.8929C15.8444 22.7059 14.382 26.5211 14.382 30.4993C14.382 34.4774 15.8444 38.2926 18.4475 41.1056C21.0506 43.9186 24.5811 45.4989 28.2624 45.4989C31.9437 45.4989 35.4743 43.9186 38.0774 41.1056C40.6804 38.2926 42.1428 34.4774 42.1428 30.4993C42.1428 26.5211 40.6804 22.7059 38.0774 19.8929C35.4743 17.08 31.9437 15.4996 28.2624 15.4996ZM28.2624 21.4995C29.3561 21.4993 30.4391 21.7319 31.4496 22.184C32.4601 22.6361 33.3783 23.2988 34.1518 24.1344C34.9253 24.97 35.5389 25.962 35.9576 27.0538C36.3763 28.1457 36.5919 29.3159 36.5921 30.4978C36.5922 31.6796 36.377 32.85 35.9586 33.942C35.5403 35.0339 34.927 36.0262 34.1537 36.862C33.3805 37.6979 32.4625 38.3609 31.4522 38.8134C30.4418 39.2659 29.3589 39.4989 28.2652 39.4991C26.0564 39.4991 23.9381 38.5509 22.3762 36.8631C20.8144 35.1753 19.9369 32.8862 19.9369 30.4993C19.9369 28.1124 20.8144 25.8233 22.3762 24.1355C23.9381 22.4477 26.0564 21.4995 28.2652 21.4995M42.8396 10.9997C41.9193 10.9997 41.0367 11.3948 40.3859 12.0981C39.7351 12.8013 39.3695 13.7551 39.3695 14.7497C39.3695 15.7442 39.7351 16.698 40.3859 17.4012C41.0367 18.1045 41.9193 18.4996 42.8396 18.4996C43.76 18.4996 44.6426 18.1045 45.2934 17.4012C45.9441 16.698 46.3097 15.7442 46.3097 14.7497C46.3097 13.7551 45.9441 12.8013 45.2934 12.0981C44.6426 11.3948 43.76 10.9997 42.8396 10.9997Z" fill="white"/>
</svg>
