<svg width="16" height="16" viewBox="0 0 16 16" fill="none" xmlns="http://www.w3.org/2000/svg">
<rect width="16" height="16" fill="#B8A05A"/>
<path d="M5.23809 7.128C4.82743 7.128 4.51276 7.25333 4.29409 7.504C4.07543 7.75467 3.96609 8.10933 3.96609 8.568C3.96609 9.032 4.08609 9.38933 4.32609 9.64C4.57143 9.89067 4.89943 10.016 5.31009 10.016C5.52876 10.016 5.71276 9.98667 5.86209 9.928C6.01676 9.86933 6.16343 9.80267 6.30209 9.728C6.39276 9.80267 6.46209 9.89333 6.51009 10C6.56343 10.1013 6.59009 10.2213 6.59009 10.36C6.59009 10.5787 6.46743 10.7653 6.22209 10.92C5.98209 11.0693 5.61409 11.144 5.11809 11.144C4.76076 11.144 4.42476 11.0933 4.11009 10.992C3.79543 10.8907 3.52076 10.736 3.28609 10.528C3.05143 10.3147 2.86476 10.048 2.72609 9.728C2.59276 9.40267 2.52609 9.016 2.52609 8.568C2.52609 8.152 2.59009 7.78667 2.71809 7.472C2.85143 7.152 3.03009 6.88267 3.25409 6.664C3.48343 6.44533 3.75009 6.28 4.05409 6.168C4.35809 6.056 4.68343 6 5.03009 6C5.52076 6 5.89943 6.08 6.16609 6.24C6.43809 6.4 6.57409 6.60533 6.57409 6.856C6.57409 6.99467 6.53943 7.11467 6.47009 7.216C6.40076 7.31733 6.32076 7.39733 6.23009 7.456C6.09143 7.36533 5.94209 7.288 5.78209 7.224C5.62743 7.16 5.44609 7.128 5.23809 7.128ZM11.0724 10.992C11.0191 11.008 10.9337 11.024 10.8164 11.04C10.7044 11.056 10.5871 11.064 10.4644 11.064C10.3471 11.064 10.2404 11.056 10.1444 11.04C10.0537 11.024 9.97641 10.992 9.91241 10.944C9.84841 10.896 9.79774 10.832 9.76041 10.752C9.72841 10.6667 9.71241 10.5573 9.71241 10.424V8.648C9.71241 8.42933 9.65641 8.27733 9.54441 8.192C9.43774 8.10133 9.30441 8.056 9.14441 8.056C9.03774 8.056 8.93641 8.06933 8.84041 8.096C8.74441 8.12267 8.66707 8.15467 8.60841 8.192V10.992C8.55507 11.008 8.46974 11.024 8.35241 11.04C8.24041 11.056 8.12307 11.064 8.00041 11.064C7.88307 11.064 7.77641 11.056 7.68041 11.04C7.58974 11.024 7.51241 10.992 7.44841 10.944C7.38441 10.896 7.33374 10.832 7.29641 10.752C7.26441 10.6667 7.24841 10.5573 7.24841 10.424V5.784C7.30707 5.77333 7.39241 5.76 7.50441 5.744C7.62174 5.72267 7.73907 5.712 7.85641 5.712C7.97374 5.712 8.07774 5.72 8.16841 5.736C8.26441 5.752 8.34441 5.784 8.40841 5.832C8.47241 5.88 8.52041 5.94667 8.55241 6.032C8.58974 6.112 8.60841 6.21867 8.60841 6.352V7.136C8.67774 7.10933 8.78174 7.08 8.92041 7.048C9.06441 7.01067 9.22174 6.992 9.39241 6.992C9.92041 6.992 10.3311 7.12533 10.6244 7.392C10.9231 7.65333 11.0724 8.04533 11.0724 8.568V10.992ZM11.8801 6.032C11.8801 5.82933 11.9468 5.65867 12.0801 5.52C12.2188 5.38133 12.4001 5.312 12.6241 5.312C12.8481 5.312 13.0268 5.38133 13.1601 5.52C13.2988 5.65867 13.3681 5.82933 13.3681 6.032C13.3681 6.23467 13.2988 6.40533 13.1601 6.544C13.0268 6.68267 12.8481 6.752 12.6241 6.752C12.4001 6.752 12.2188 6.68267 12.0801 6.544C11.9468 6.40533 11.8801 6.23467 11.8801 6.032ZM13.3041 10.992C13.2454 11.0027 13.1574 11.016 13.0401 11.032C12.9281 11.0533 12.8134 11.064 12.6961 11.064C12.5788 11.064 12.4721 11.056 12.3761 11.04C12.2854 11.024 12.2081 10.992 12.1441 10.944C12.0801 10.896 12.0294 10.832 11.9921 10.752C11.9601 10.6667 11.9441 10.5573 11.9441 10.424V7.168C12.0028 7.15733 12.0881 7.144 12.2001 7.128C12.3174 7.10667 12.4348 7.096 12.5521 7.096C12.6694 7.096 12.7734 7.104 12.8641 7.12C12.9601 7.136 13.0401 7.168 13.1041 7.216C13.1681 7.264 13.2161 7.33067 13.2481 7.416C13.2854 7.496 13.3041 7.60267 13.3041 7.736V10.992Z" fill="white"/>
</svg>
